<mxfile host="app.diagrams.net" modified="2021-11-24T00:44:02.291Z" agent="5.0 (X11; Linux x86_64) AppleWebKit/537.36 (KHTML, like Gecko) Chrome/94.0.4606.114 Safari/537.36" etag="dzIxMQBGmkMFNftMXV2k" version="15.8.3" type="github">
  <diagram id="C5RBs43oDa-KdzZeNtuy" name="Page-1">
    <mxGraphModel dx="2136" dy="723" grid="1" gridSize="10" guides="1" tooltips="1" connect="1" arrows="1" fold="1" page="1" pageScale="1" pageWidth="827" pageHeight="1169" math="0" shadow="0">
      <root>
        <mxCell id="WIyWlLk6GJQsqaUBKTNV-0" />
        <mxCell id="WIyWlLk6GJQsqaUBKTNV-1" parent="WIyWlLk6GJQsqaUBKTNV-0" />
        <mxCell id="3swpft1R9cqD6k_XmFpj-0" value="" style="edgeStyle=orthogonalEdgeStyle;rounded=0;orthogonalLoop=1;jettySize=auto;html=1;" edge="1" parent="WIyWlLk6GJQsqaUBKTNV-1" source="WIyWlLk6GJQsqaUBKTNV-3" target="WIyWlLk6GJQsqaUBKTNV-7">
          <mxGeometry relative="1" as="geometry" />
        </mxCell>
        <mxCell id="WIyWlLk6GJQsqaUBKTNV-3" value="start game" style="rounded=1;whiteSpace=wrap;html=1;fontSize=12;glass=0;strokeWidth=1;shadow=0;" parent="WIyWlLk6GJQsqaUBKTNV-1" vertex="1">
          <mxGeometry x="160" y="80" width="120" height="40" as="geometry" />
        </mxCell>
        <mxCell id="3swpft1R9cqD6k_XmFpj-3" value="" style="edgeStyle=orthogonalEdgeStyle;rounded=0;orthogonalLoop=1;jettySize=auto;html=1;" edge="1" parent="WIyWlLk6GJQsqaUBKTNV-1" source="WIyWlLk6GJQsqaUBKTNV-7" target="3swpft1R9cqD6k_XmFpj-2">
          <mxGeometry relative="1" as="geometry" />
        </mxCell>
        <mxCell id="WIyWlLk6GJQsqaUBKTNV-7" value="game picks random word from list" style="rounded=1;whiteSpace=wrap;html=1;fontSize=12;glass=0;strokeWidth=1;shadow=0;" parent="WIyWlLk6GJQsqaUBKTNV-1" vertex="1">
          <mxGeometry x="160" y="160" width="120" height="40" as="geometry" />
        </mxCell>
        <mxCell id="3swpft1R9cqD6k_XmFpj-5" value="" style="edgeStyle=orthogonalEdgeStyle;rounded=0;orthogonalLoop=1;jettySize=auto;html=1;" edge="1" parent="WIyWlLk6GJQsqaUBKTNV-1" source="3swpft1R9cqD6k_XmFpj-2" target="3swpft1R9cqD6k_XmFpj-4">
          <mxGeometry relative="1" as="geometry" />
        </mxCell>
        <mxCell id="3swpft1R9cqD6k_XmFpj-2" value="game clacs number of letters in word" style="whiteSpace=wrap;html=1;rounded=1;shadow=0;strokeWidth=1;glass=0;" vertex="1" parent="WIyWlLk6GJQsqaUBKTNV-1">
          <mxGeometry x="160" y="270" width="120" height="60" as="geometry" />
        </mxCell>
        <mxCell id="3swpft1R9cqD6k_XmFpj-7" value="" style="edgeStyle=orthogonalEdgeStyle;rounded=0;orthogonalLoop=1;jettySize=auto;html=1;" edge="1" parent="WIyWlLk6GJQsqaUBKTNV-1" source="3swpft1R9cqD6k_XmFpj-4" target="3swpft1R9cqD6k_XmFpj-6">
          <mxGeometry relative="1" as="geometry" />
        </mxCell>
        <mxCell id="3swpft1R9cqD6k_XmFpj-4" value="game displays number of letters to guess" style="whiteSpace=wrap;html=1;rounded=1;shadow=0;strokeWidth=1;glass=0;" vertex="1" parent="WIyWlLk6GJQsqaUBKTNV-1">
          <mxGeometry x="160" y="410" width="120" height="60" as="geometry" />
        </mxCell>
        <mxCell id="3swpft1R9cqD6k_XmFpj-9" value="" style="edgeStyle=orthogonalEdgeStyle;rounded=0;orthogonalLoop=1;jettySize=auto;html=1;" edge="1" parent="WIyWlLk6GJQsqaUBKTNV-1" source="3swpft1R9cqD6k_XmFpj-6" target="3swpft1R9cqD6k_XmFpj-8">
          <mxGeometry relative="1" as="geometry" />
        </mxCell>
        <mxCell id="3swpft1R9cqD6k_XmFpj-6" value="game asks for input" style="whiteSpace=wrap;html=1;rounded=1;shadow=0;strokeWidth=1;glass=0;" vertex="1" parent="WIyWlLk6GJQsqaUBKTNV-1">
          <mxGeometry x="160" y="550" width="120" height="60" as="geometry" />
        </mxCell>
        <mxCell id="3swpft1R9cqD6k_XmFpj-11" value="" style="edgeStyle=orthogonalEdgeStyle;rounded=0;orthogonalLoop=1;jettySize=auto;html=1;" edge="1" parent="WIyWlLk6GJQsqaUBKTNV-1" source="3swpft1R9cqD6k_XmFpj-8" target="3swpft1R9cqD6k_XmFpj-10">
          <mxGeometry relative="1" as="geometry" />
        </mxCell>
        <mxCell id="3swpft1R9cqD6k_XmFpj-17" value="" style="edgeStyle=orthogonalEdgeStyle;rounded=0;orthogonalLoop=1;jettySize=auto;html=1;" edge="1" parent="WIyWlLk6GJQsqaUBKTNV-1" source="3swpft1R9cqD6k_XmFpj-8" target="3swpft1R9cqD6k_XmFpj-16">
          <mxGeometry relative="1" as="geometry" />
        </mxCell>
        <mxCell id="3swpft1R9cqD6k_XmFpj-8" value="game compares input to word" style="rhombus;whiteSpace=wrap;html=1;rounded=1;shadow=0;strokeWidth=1;glass=0;" vertex="1" parent="WIyWlLk6GJQsqaUBKTNV-1">
          <mxGeometry x="165" y="680" width="110" height="110" as="geometry" />
        </mxCell>
        <mxCell id="3swpft1R9cqD6k_XmFpj-13" value="" style="edgeStyle=orthogonalEdgeStyle;rounded=0;orthogonalLoop=1;jettySize=auto;html=1;" edge="1" parent="WIyWlLk6GJQsqaUBKTNV-1" source="3swpft1R9cqD6k_XmFpj-10" target="3swpft1R9cqD6k_XmFpj-12">
          <mxGeometry relative="1" as="geometry" />
        </mxCell>
        <mxCell id="3swpft1R9cqD6k_XmFpj-10" value="finds match&amp;nbsp;" style="whiteSpace=wrap;html=1;rounded=1;shadow=0;strokeWidth=1;glass=0;" vertex="1" parent="WIyWlLk6GJQsqaUBKTNV-1">
          <mxGeometry x="350" y="705" width="120" height="60" as="geometry" />
        </mxCell>
        <mxCell id="3swpft1R9cqD6k_XmFpj-15" value="" style="edgeStyle=orthogonalEdgeStyle;rounded=0;orthogonalLoop=1;jettySize=auto;html=1;" edge="1" parent="WIyWlLk6GJQsqaUBKTNV-1" source="3swpft1R9cqD6k_XmFpj-12" target="3swpft1R9cqD6k_XmFpj-14">
          <mxGeometry relative="1" as="geometry" />
        </mxCell>
        <mxCell id="3swpft1R9cqD6k_XmFpj-12" value="figures out location of match" style="whiteSpace=wrap;html=1;rounded=1;shadow=0;strokeWidth=1;glass=0;" vertex="1" parent="WIyWlLk6GJQsqaUBKTNV-1">
          <mxGeometry x="350" y="800" width="120" height="60" as="geometry" />
        </mxCell>
        <mxCell id="3swpft1R9cqD6k_XmFpj-25" value="" style="edgeStyle=orthogonalEdgeStyle;rounded=0;orthogonalLoop=1;jettySize=auto;html=1;" edge="1" parent="WIyWlLk6GJQsqaUBKTNV-1" source="3swpft1R9cqD6k_XmFpj-14">
          <mxGeometry relative="1" as="geometry">
            <mxPoint x="410" y="1125" as="targetPoint" />
          </mxGeometry>
        </mxCell>
        <mxCell id="3swpft1R9cqD6k_XmFpj-14" value="displays letter" style="whiteSpace=wrap;html=1;rounded=1;shadow=0;strokeWidth=1;glass=0;" vertex="1" parent="WIyWlLk6GJQsqaUBKTNV-1">
          <mxGeometry x="350" y="900" width="120" height="60" as="geometry" />
        </mxCell>
        <mxCell id="3swpft1R9cqD6k_XmFpj-19" value="" style="edgeStyle=orthogonalEdgeStyle;rounded=0;orthogonalLoop=1;jettySize=auto;html=1;" edge="1" parent="WIyWlLk6GJQsqaUBKTNV-1" source="3swpft1R9cqD6k_XmFpj-16" target="3swpft1R9cqD6k_XmFpj-18">
          <mxGeometry relative="1" as="geometry" />
        </mxCell>
        <mxCell id="3swpft1R9cqD6k_XmFpj-16" value="no match" style="whiteSpace=wrap;html=1;rounded=1;shadow=0;strokeWidth=1;glass=0;" vertex="1" parent="WIyWlLk6GJQsqaUBKTNV-1">
          <mxGeometry x="-30" y="705" width="120" height="60" as="geometry" />
        </mxCell>
        <mxCell id="3swpft1R9cqD6k_XmFpj-21" value="" style="edgeStyle=orthogonalEdgeStyle;rounded=0;orthogonalLoop=1;jettySize=auto;html=1;" edge="1" parent="WIyWlLk6GJQsqaUBKTNV-1" source="3swpft1R9cqD6k_XmFpj-18" target="3swpft1R9cqD6k_XmFpj-20">
          <mxGeometry relative="1" as="geometry" />
        </mxCell>
        <mxCell id="3swpft1R9cqD6k_XmFpj-18" value="calcs condition of hang" style="whiteSpace=wrap;html=1;rounded=1;shadow=0;strokeWidth=1;glass=0;" vertex="1" parent="WIyWlLk6GJQsqaUBKTNV-1">
          <mxGeometry x="-30" y="800" width="120" height="60" as="geometry" />
        </mxCell>
        <mxCell id="3swpft1R9cqD6k_XmFpj-29" value="" style="edgeStyle=orthogonalEdgeStyle;rounded=0;orthogonalLoop=1;jettySize=auto;html=1;" edge="1" parent="WIyWlLk6GJQsqaUBKTNV-1" source="3swpft1R9cqD6k_XmFpj-20" target="3swpft1R9cqD6k_XmFpj-28">
          <mxGeometry relative="1" as="geometry" />
        </mxCell>
        <mxCell id="3swpft1R9cqD6k_XmFpj-20" value="displays hang" style="whiteSpace=wrap;html=1;rounded=1;shadow=0;strokeWidth=1;glass=0;" vertex="1" parent="WIyWlLk6GJQsqaUBKTNV-1">
          <mxGeometry x="-30" y="900" width="120" height="60" as="geometry" />
        </mxCell>
        <mxCell id="3swpft1R9cqD6k_XmFpj-30" style="edgeStyle=orthogonalEdgeStyle;rounded=0;orthogonalLoop=1;jettySize=auto;html=1;entryX=0;entryY=0.5;entryDx=0;entryDy=0;" edge="1" parent="WIyWlLk6GJQsqaUBKTNV-1" source="3swpft1R9cqD6k_XmFpj-28" target="3swpft1R9cqD6k_XmFpj-6">
          <mxGeometry relative="1" as="geometry">
            <mxPoint x="-100" y="616" as="targetPoint" />
            <Array as="points">
              <mxPoint x="-80" y="1053" />
              <mxPoint x="-80" y="580" />
            </Array>
          </mxGeometry>
        </mxCell>
        <mxCell id="3swpft1R9cqD6k_XmFpj-32" style="edgeStyle=orthogonalEdgeStyle;rounded=0;orthogonalLoop=1;jettySize=auto;html=1;exitX=0.5;exitY=1;exitDx=0;exitDy=0;entryX=0;entryY=0.5;entryDx=0;entryDy=0;" edge="1" parent="WIyWlLk6GJQsqaUBKTNV-1" source="3swpft1R9cqD6k_XmFpj-28" target="3swpft1R9cqD6k_XmFpj-31">
          <mxGeometry relative="1" as="geometry" />
        </mxCell>
        <mxCell id="3swpft1R9cqD6k_XmFpj-28" value="check if dead" style="rhombus;whiteSpace=wrap;html=1;rounded=1;shadow=0;strokeWidth=1;glass=0;" vertex="1" parent="WIyWlLk6GJQsqaUBKTNV-1">
          <mxGeometry x="-20" y="1000" width="100" height="105" as="geometry" />
        </mxCell>
        <mxCell id="3swpft1R9cqD6k_XmFpj-31" value="game over" style="rounded=1;whiteSpace=wrap;html=1;" vertex="1" parent="WIyWlLk6GJQsqaUBKTNV-1">
          <mxGeometry x="160" y="1109" width="120" height="60" as="geometry" />
        </mxCell>
        <mxCell id="3swpft1R9cqD6k_XmFpj-34" style="edgeStyle=orthogonalEdgeStyle;rounded=0;orthogonalLoop=1;jettySize=auto;html=1;exitX=0.5;exitY=1;exitDx=0;exitDy=0;entryX=1;entryY=0.5;entryDx=0;entryDy=0;" edge="1" parent="WIyWlLk6GJQsqaUBKTNV-1" source="3swpft1R9cqD6k_XmFpj-33" target="3swpft1R9cqD6k_XmFpj-31">
          <mxGeometry relative="1" as="geometry" />
        </mxCell>
        <mxCell id="3swpft1R9cqD6k_XmFpj-35" style="edgeStyle=orthogonalEdgeStyle;rounded=0;orthogonalLoop=1;jettySize=auto;html=1;exitX=1;exitY=0.5;exitDx=0;exitDy=0;entryX=1;entryY=0.5;entryDx=0;entryDy=0;" edge="1" parent="WIyWlLk6GJQsqaUBKTNV-1" source="3swpft1R9cqD6k_XmFpj-33" target="3swpft1R9cqD6k_XmFpj-6">
          <mxGeometry relative="1" as="geometry">
            <Array as="points">
              <mxPoint x="520" y="1053" />
              <mxPoint x="520" y="580" />
            </Array>
          </mxGeometry>
        </mxCell>
        <mxCell id="3swpft1R9cqD6k_XmFpj-33" value="word complete?" style="rhombus;whiteSpace=wrap;html=1;rounded=1;shadow=0;strokeWidth=1;glass=0;" vertex="1" parent="WIyWlLk6GJQsqaUBKTNV-1">
          <mxGeometry x="360" y="1000" width="100" height="105" as="geometry" />
        </mxCell>
        <mxCell id="3swpft1R9cqD6k_XmFpj-36" value="No" style="text;html=1;strokeColor=none;fillColor=none;align=center;verticalAlign=middle;whiteSpace=wrap;rounded=0;" vertex="1" parent="WIyWlLk6GJQsqaUBKTNV-1">
          <mxGeometry x="105" y="690" width="60" height="30" as="geometry" />
        </mxCell>
        <mxCell id="3swpft1R9cqD6k_XmFpj-37" value="Yes" style="text;html=1;strokeColor=none;fillColor=none;align=center;verticalAlign=middle;whiteSpace=wrap;rounded=0;" vertex="1" parent="WIyWlLk6GJQsqaUBKTNV-1">
          <mxGeometry x="280" y="690" width="60" height="30" as="geometry" />
        </mxCell>
        <mxCell id="3swpft1R9cqD6k_XmFpj-38" value="Yes" style="text;html=1;strokeColor=none;fillColor=none;align=center;verticalAlign=middle;whiteSpace=wrap;rounded=0;" vertex="1" parent="WIyWlLk6GJQsqaUBKTNV-1">
          <mxGeometry x="70" y="1109" width="60" height="30" as="geometry" />
        </mxCell>
        <mxCell id="3swpft1R9cqD6k_XmFpj-39" value="Yes" style="text;html=1;strokeColor=none;fillColor=none;align=center;verticalAlign=middle;whiteSpace=wrap;rounded=0;" vertex="1" parent="WIyWlLk6GJQsqaUBKTNV-1">
          <mxGeometry x="320" y="1109" width="60" height="30" as="geometry" />
        </mxCell>
        <mxCell id="3swpft1R9cqD6k_XmFpj-40" value="No" style="text;html=1;strokeColor=none;fillColor=none;align=center;verticalAlign=middle;whiteSpace=wrap;rounded=0;" vertex="1" parent="WIyWlLk6GJQsqaUBKTNV-1">
          <mxGeometry x="-80" y="1050" width="60" height="30" as="geometry" />
        </mxCell>
        <mxCell id="3swpft1R9cqD6k_XmFpj-41" value="No" style="text;html=1;strokeColor=none;fillColor=none;align=center;verticalAlign=middle;whiteSpace=wrap;rounded=0;" vertex="1" parent="WIyWlLk6GJQsqaUBKTNV-1">
          <mxGeometry x="460" y="1050" width="60" height="30" as="geometry" />
        </mxCell>
      </root>
    </mxGraphModel>
  </diagram>
</mxfile>
